<svg width="203" height="201" viewBox="0 0 203 201" fill="none" xmlns="http://www.w3.org/2000/svg">
<path d="M131 147.5H144C144 147.5 143.998 177 143.998 185.5C143.998 194 139.997 199 130.498 199H18.9976C11.4973 199 5.99756 194.5 5.99756 186.5V157.691V88.6017V24.0001C5.99756 13.5 7.99721 10.0001 20.4976 10.0001H129.998C138.498 10.0001 143.998 14.5001 143.998 22.0001V31.5C50.9995 23.4999 94.5 111 19.4976 91.0001L18.9976 178.5C18.9976 184 18.4972 185.5 22.9976 185.5H123.998C124.497 185.5 130.998 186 130.998 180.5C130.998 175 131 147.5 131 147.5Z" fill="#F0F7F4"/>
<path d="M19.4976 91.0001C94.5 111 50.9995 23.4999 143.998 31.5V22.0001C143.998 14.5001 138.498 10.0001 129.998 10.0001C121.498 10.0001 32.998 10.0001 20.4976 10.0001C7.99721 10.0001 5.99756 13.5 5.99756 24.0001C5.99756 28.4422 5.99756 56.7782 5.99756 88.6017M19.4976 91.0001L18.9976 178.5M19.4976 91.0001C14.306 89.6157 9.83079 88.8422 5.99756 88.6017M18.9976 178.5C18.9976 184 18.4972 185.5 22.9976 185.5C27.498 185.5 123.498 185.5 123.998 185.5C124.497 185.5 130.998 186 130.998 180.5C130.998 175 131 147.5 131 147.5H144C144 147.5 143.998 177 143.998 185.5C143.998 194 139.997 199 130.498 199C120.998 199 26.498 199 18.9976 199C11.4973 199 5.99756 194.5 5.99756 186.5C5.99756 184.432 5.99756 173.278 5.99756 157.691M18.9976 178.5C18.9976 178.5 12.9279 169.742 5.99756 157.691M5.99756 88.6017C5.99756 112.557 5.99756 138.487 5.99756 157.691M5.99756 88.6017V157.691" stroke="#F0F7F4"/>
<path d="M144 145.5C139.197 147.007 131 147.5 131 147.5L144 147.214L144 145.5Z" fill="#F0F7F4" stroke="#F0F7F4"/>
<path d="M191.5 157C186 151.5 158.5 124.5 158.5 124.5L166.5 114.5L200 148C205 153 197 162.5 191.5 157Z" fill="#F0F7F4" stroke="#F0F7F4"/>
<path d="M129.5 49C151.315 49 169 66.6848 169 88.5C169 110.315 151.315 128 129.5 128C107.685 128 90 110.315 90 88.5C90 66.6848 107.685 49 129.5 49Z" stroke="#F0F7F4" stroke-width="14"/>
</svg>
